<svg width="774" height="362" viewBox="0 0 774 362" fill="none" xmlns="http://www.w3.org/2000/svg">
<g clip-path="url(#clip0_1_2)">
<path d="M35.31 53.6755C35.31 55.9855 36.465 57.8005 38.775 59.1205C41.195 60.4405 44.935 61.8705 49.995 63.4105C56.045 65.3905 60.995 67.3155 64.845 69.1855C68.805 71.0555 72.215 73.9705 75.075 77.9305C78.045 81.8905 79.53 87.0605 79.53 93.4405C79.53 113.901 66.22 124.131 39.6 124.131C35.2 124.131 29.81 123.746 23.43 122.976C17.16 122.206 11.44 121.216 6.27 120.006C6.49 117.696 6.93 114.341 7.59 109.941C8.36 105.431 9.075 102.076 9.735 99.8755C13.585 100.426 19.36 101.086 27.06 101.856C34.87 102.626 40.755 103.011 44.715 103.011C47.025 103.011 48.4 102.846 48.84 102.516C49.5 102.076 49.995 101.361 50.325 100.371C50.765 99.2705 50.985 98.3355 50.985 97.5655C50.985 95.3655 49.94 93.7155 47.85 92.6155C45.76 91.4055 42.185 89.9755 37.125 88.3255C31.075 86.4555 26.07 84.5305 22.11 82.5505C18.15 80.5705 14.685 77.4905 11.715 73.3105C8.745 69.1305 7.26 63.6305 7.26 56.8105C7.26 51.9705 8.36 47.2405 10.56 42.6205C12.76 37.8905 15.015 34.7005 17.325 33.0505C19.085 31.8405 22.715 30.6855 28.215 29.5855C33.715 28.4855 38.885 27.9355 43.725 27.9355C56.045 27.9355 66.11 29.0905 73.92 31.4005C73.81 33.6005 73.425 36.6255 72.765 40.4755C72.215 44.3255 71.61 47.8455 70.95 51.0355L67.155 50.8705C52.855 49.8805 43.725 49.3855 39.765 49.3855C38.115 49.3855 37.18 49.4405 36.96 49.5505C36.52 49.7705 36.135 50.2655 35.805 51.0355C35.475 51.8055 35.31 52.6855 35.31 53.6755ZM140.568 122.316H110.868V48.8905H84.3034V28.2655H167.133V48.8905H140.568V122.316ZM262.269 122.316H231.084L225.474 98.5555C225.254 97.6755 224.869 96.1905 224.319 94.1005C223.879 91.9005 223.329 90.3055 222.669 89.3155C222.009 88.2155 221.074 87.5005 219.864 87.1705C216.784 87.2805 212.274 87.3355 206.334 87.3355V122.316H176.634V29.0905C189.944 28.1005 202.374 27.6055 213.924 27.6055C224.374 27.6055 232.844 28.4855 239.334 30.2455C245.824 31.8955 250.664 34.8105 253.854 38.9905C257.154 43.0605 258.804 48.6705 258.804 55.8205C258.804 62.5305 257.264 67.8105 254.184 71.6605C251.104 75.4005 246.154 77.6555 239.334 78.4255V79.4155C243.184 79.7455 246.374 81.0105 248.904 83.2105C251.544 85.3005 253.304 87.9955 254.184 91.2955L262.269 122.316ZM206.334 68.6905C207.324 68.8005 209.249 68.8555 212.109 68.8555C220.579 68.8555 225.529 68.1405 226.959 66.7105C228.279 65.3905 228.939 62.3105 228.939 57.4705C228.939 52.9605 227.729 49.8805 225.309 48.2305C222.999 46.5805 219.149 45.7555 213.759 45.7555C212.549 45.7555 210.074 45.8655 206.334 46.0855V68.6905ZM326.797 101.691H299.407L294.457 122.316H264.097L294.457 28.2655H333.232L362.272 122.316H331.747L326.797 101.691ZM312.937 48.5605L303.202 83.3755H322.837L313.597 48.5605H312.937ZM412.399 122.316H382.699V48.8905H356.134V28.2655H438.964V48.8905H412.399V122.316ZM447.64 28.2655H516.115V48.0655H477.34V65.2255H510.01V83.0455H477.34V102.186H515.95V122.316H447.64V28.2655ZM608.945 70.1755V117.201C601.575 119.621 594.59 121.381 587.99 122.481C581.39 123.581 575.835 124.131 571.325 124.131C556.365 124.131 544.65 120.226 536.18 112.416C527.71 104.606 523.475 92.6155 523.475 76.4455C523.475 59.9455 527.93 47.6255 536.84 39.4855C545.75 31.2355 558.29 27.1105 574.46 27.1105C582.93 27.1105 593.105 28.3755 604.985 30.9055C604.985 33.1055 604.765 36.4055 604.325 40.8055C603.885 45.0955 603.445 48.1205 603.005 49.8805L597.065 49.7155C589.805 49.4955 584.14 49.3855 580.07 49.3855C567.86 49.3855 561.205 50.1005 560.105 51.5305C558.345 53.6205 557.08 56.8655 556.31 61.2655C555.65 65.6655 555.32 69.9005 555.32 73.9705C555.32 81.3405 556.145 87.0605 557.795 91.1305C559.445 95.2005 561.975 98.0605 565.385 99.7105C568.795 101.361 573.415 102.186 579.245 102.186H579.905V70.1755H608.945ZM623.137 28.2655H652.837V122.316H623.137V28.2655ZM743.294 119.181C739.224 120.941 734.494 122.206 729.104 122.976C723.714 123.746 718.709 124.131 714.089 124.131C699.129 124.131 687.414 120.226 678.944 112.416C670.474 104.606 666.239 92.6155 666.239 76.4455C666.239 59.9455 670.694 47.6255 679.604 39.4855C688.514 31.2355 701.054 27.1105 717.224 27.1105C724.924 27.1105 732.954 28.1555 741.314 30.2455C741.314 32.4455 741.094 35.7455 740.654 40.1455C740.214 44.4355 739.774 47.4605 739.334 49.2205H728.939C721.349 49.2205 715.354 49.3855 710.954 49.7155C706.664 49.9355 704.079 50.4305 703.199 51.2005C701.549 52.7405 700.284 55.8755 699.404 60.6055C698.524 65.2255 698.084 69.6805 698.084 73.9705C698.084 81.4505 699.019 87.2255 700.889 91.2955C702.759 95.2555 705.124 97.8955 707.984 99.2155C710.734 100.536 715.299 101.196 721.679 101.196C726.739 101.196 733.339 100.756 741.479 99.8755L743.294 119.181Z" fill="white"/>
<path d="M46.2 251.359C55.11 251.359 62.645 252.184 68.805 253.834C74.965 255.484 79.86 258.674 83.49 263.404C87.23 268.024 89.1 274.679 89.1 283.369C89.1 287.219 88.495 291.179 87.285 295.249C86.185 299.209 84.755 302.674 82.995 305.644C81.345 308.614 79.86 310.539 78.54 311.419C77 312.519 73.59 313.399 68.31 314.059C63.03 314.609 56.815 314.884 49.665 314.884C47.135 314.884 43.23 314.774 37.95 314.554V345.904H8.25V251.854C19.8 251.524 32.45 251.359 46.2 251.359ZM58.575 293.764C59.675 292.334 60.225 289.474 60.225 285.184C60.225 279.574 59.015 275.614 56.595 273.304C54.285 270.994 50.215 269.839 44.385 269.839C42.405 269.839 40.26 270.004 37.95 270.334V295.414C39.05 295.524 41.195 295.579 44.385 295.579C52.855 295.579 57.585 294.974 58.575 293.764ZM99.2823 251.854H128.982V324.124H167.427V345.904H99.2823V251.854ZM232.534 325.279H205.144L200.194 345.904H169.834L200.194 251.854H238.969L268.009 345.904H237.484L232.534 325.279ZM218.674 272.149L208.939 306.964H228.574L219.334 272.149H218.674ZM303.769 307.954V345.904H276.214V251.854H304.099L329.014 289.804C332.754 295.414 335.614 300.144 337.594 303.994H338.089V288.154V251.854H365.479V345.904H337.429L311.854 306.304L304.429 295.084H303.934L303.769 307.954ZM409.311 307.954V345.904H381.756V251.854H409.641L434.556 289.804C438.296 295.414 441.156 300.144 443.136 303.994H443.631V288.154V251.854H471.021V345.904H442.971L417.396 306.304L409.971 295.084H409.476L409.311 307.954ZM486.473 251.854H554.948V271.654H516.173V288.814H548.843V306.634H516.173V325.774H554.783V345.904H486.473V251.854ZM653.177 345.904H621.992L616.382 322.144C616.162 321.264 615.777 319.779 615.227 317.689C614.787 315.489 614.237 313.894 613.577 312.904C612.917 311.804 611.982 311.089 610.772 310.759C607.692 310.869 603.182 310.924 597.242 310.924V345.904H567.542V252.679C580.852 251.689 593.282 251.194 604.832 251.194C615.282 251.194 623.752 252.074 630.242 253.834C636.732 255.484 641.572 258.399 644.762 262.579C648.062 266.649 649.712 272.259 649.712 279.409C649.712 286.119 648.172 291.399 645.092 295.249C642.012 298.989 637.062 301.244 630.242 302.014V303.004C634.092 303.334 637.282 304.599 639.812 306.799C642.452 308.889 644.212 311.584 645.092 314.884L653.177 345.904ZM597.242 292.279C598.232 292.389 600.157 292.444 603.017 292.444C611.487 292.444 616.437 291.729 617.867 290.299C619.187 288.979 619.847 285.899 619.847 281.059C619.847 276.549 618.637 273.469 616.217 271.819C613.907 270.169 610.057 269.344 604.667 269.344C603.457 269.344 600.982 269.454 597.242 269.674V292.279ZM677.115 347.224C672.605 347.224 668.865 345.739 665.895 342.769C663.035 339.799 661.605 335.784 661.605 330.724C661.605 326.324 663.09 322.639 666.06 319.669C669.14 316.589 672.99 315.049 677.61 315.049C682.01 315.049 685.695 316.589 688.665 319.669C691.635 322.639 693.12 326.324 693.12 330.724C693.12 335.784 691.635 339.799 688.665 342.769C685.805 345.739 681.955 347.224 677.115 347.224Z" fill="white"/>
<path d="M54.12 235.771C37.73 235.771 25.41 231.921 17.16 224.221C9.02 216.411 4.95 203.926 4.95 186.766C4.95 169.936 9.46 157.671 18.48 149.971C27.5 142.271 39.435 138.421 54.285 138.421C85.525 138.421 101.145 153.986 101.145 185.116C101.145 200.846 97.295 213.221 89.595 222.241C82.005 231.261 70.18 235.771 54.12 235.771ZM53.46 216.301C56.54 216.301 59.125 215.806 61.215 214.816C63.305 213.716 64.955 211.846 66.165 209.206C68.475 204.696 69.63 197.326 69.63 187.096C69.63 177.086 68.475 169.826 66.165 165.316C63.855 160.696 59.62 158.276 53.46 158.056C51.15 158.056 48.73 158.331 46.2 158.881C43.78 159.321 42.24 159.981 41.58 160.861C40.26 162.401 39.215 165.701 38.445 170.761C37.785 175.711 37.455 181.156 37.455 187.096C37.455 196.336 38.335 203.101 40.095 207.391C41.305 210.581 43.01 212.891 45.21 214.321C47.41 215.641 50.16 216.301 53.46 216.301ZM196.445 181.486V228.511C189.075 230.931 182.09 232.691 175.49 233.791C168.89 234.891 163.335 235.441 158.825 235.441C143.865 235.441 132.15 231.536 123.68 223.726C115.21 215.916 110.975 203.926 110.975 187.756C110.975 171.256 115.43 158.936 124.34 150.796C133.25 142.546 145.79 138.421 161.96 138.421C170.43 138.421 180.605 139.686 192.485 142.216C192.485 144.416 192.265 147.716 191.825 152.116C191.385 156.406 190.945 159.431 190.505 161.191L184.565 161.026C177.305 160.806 171.64 160.696 167.57 160.696C155.36 160.696 148.705 161.411 147.605 162.841C145.845 164.931 144.58 168.176 143.81 172.576C143.15 176.976 142.82 181.211 142.82 185.281C142.82 192.651 143.645 198.371 145.295 202.441C146.945 206.511 149.475 209.371 152.885 211.021C156.295 212.671 160.915 213.496 166.745 213.496H167.405V181.486H196.445ZM237.532 164.986C237.532 167.296 238.687 169.111 240.997 170.431C243.417 171.751 247.157 173.181 252.217 174.721C258.267 176.701 263.217 178.626 267.067 180.496C271.027 182.366 274.437 185.281 277.297 189.241C280.267 193.201 281.752 198.371 281.752 204.751C281.752 225.211 268.442 235.441 241.822 235.441C237.422 235.441 232.032 235.056 225.652 234.286C219.382 233.516 213.662 232.526 208.492 231.316C208.712 229.006 209.152 225.651 209.812 221.251C210.582 216.741 211.297 213.386 211.957 211.186C215.807 211.736 221.582 212.396 229.282 213.166C237.092 213.936 242.977 214.321 246.937 214.321C249.247 214.321 250.622 214.156 251.062 213.826C251.722 213.386 252.217 212.671 252.547 211.681C252.987 210.581 253.207 209.646 253.207 208.876C253.207 206.676 252.162 205.026 250.072 203.926C247.982 202.716 244.407 201.286 239.347 199.636C233.297 197.766 228.292 195.841 224.332 193.861C220.372 191.881 216.907 188.801 213.937 184.621C210.967 180.441 209.482 174.941 209.482 168.121C209.482 163.281 210.582 158.551 212.782 153.931C214.982 149.201 217.237 146.011 219.547 144.361C221.307 143.151 224.937 141.996 230.437 140.896C235.937 139.796 241.107 139.246 245.947 139.246C258.267 139.246 268.332 140.401 276.142 142.711C276.032 144.911 275.647 147.936 274.987 151.786C274.437 155.636 273.832 159.156 273.172 162.346L269.377 162.181C255.077 161.191 245.947 160.696 241.987 160.696C240.337 160.696 239.402 160.751 239.182 160.861C238.742 161.081 238.357 161.576 238.027 162.346C237.697 163.116 237.532 163.996 237.532 164.986ZM416.664 233.626H388.944L386.799 181.816C386.469 171.586 386.084 163.831 385.644 158.551H385.149C383.829 162.731 382.289 169.221 380.529 178.021L379.704 182.146L368.319 233.626H340.599L331.029 187.261L329.379 179.011C327.069 168.781 325.474 161.961 324.594 158.551H324.099C323.659 164.051 323.274 173.016 322.944 185.446C322.834 186.216 322.779 187.426 322.779 189.076L321.294 233.626H293.409L297.369 139.576H344.559L352.644 180.166L354.624 191.056C355.504 187.646 356.329 183.851 357.099 179.671L364.689 139.576H412.869L416.664 233.626Z" fill="#332DF4"/>
</g>
<defs>
<clipPath id="clip0_1_2">
<rect width="774" height="362" fill="white"/>
</clipPath>
</defs>
</svg>
